<svg xmlns="http://www.w3.org/2000/svg" xmlns:xlink="http://www.w3.org/1999/xlink" width="500" zoomAndPan="magnify" viewBox="0 0 375 374.999991" height="500" preserveAspectRatio="xMidYMid meet" version="1.0"><defs><clipPath id="f68bc0a953"><path d="M 20.394531 0 L 207 0 L 207 273 L 20.394531 273 Z M 20.394531 0 " clip-rule="nonzero"/></clipPath><clipPath id="215eb6db62"><path d="M 291 109 L 354.894531 109 L 354.894531 193 L 291 193 Z M 291 109 " clip-rule="nonzero"/></clipPath><clipPath id="1178af9d52"><path d="M 20.394531 244 L 130 244 L 130 375 L 20.394531 375 Z M 20.394531 244 " clip-rule="nonzero"/></clipPath><clipPath id="39b975098a"><path d="M 300 281 L 354.894531 281 L 354.894531 375 L 300 375 Z M 300 281 " clip-rule="nonzero"/></clipPath><clipPath id="af57d25e28"><path d="M 281 262 L 354.894531 262 L 354.894531 375 L 281 375 Z M 281 262 " clip-rule="nonzero"/></clipPath></defs><path fill="#abb284" d="M 32.761719 19.691406 C 33.261719 54.03125 35.542969 208.8125 36.070312 245.164062 C 36.136719 249.550781 39.5625 253.160156 43.941406 253.425781 C 71.796875 255.125 166.042969 256.847656 184.671875 204.359375 C 184.671875 204.359375 209.800781 136.839844 113.628906 127.121094 C 110.621094 126.816406 110.015625 122.707031 112.808594 121.574219 C 129.289062 114.898438 154.496094 99.066406 162.851562 63.328125 C 162.851562 63.328125 189.746094 -29.925781 39.21875 11.078125 C 35.34375 12.132812 32.679688 15.675781 32.746094 19.691406 Z M 32.761719 19.691406 " fill-opacity="1" fill-rule="nonzero"/><g clip-path="url(#f68bc0a953)"><path stroke-linecap="butt" transform="matrix(1.31833, 0, 0, 1.317176, 20.421097, -0.000000000000042633)" fill="none" stroke-linejoin="miter" d="M 9.360796 14.949717 C 9.740063 41.020529 11.470471 158.530464 11.87048 186.128573 C 11.920852 189.45897 14.519427 192.199208 17.840982 192.40087 C 38.970334 193.690917 110.45931 194.998758 124.58999 155.149651 C 124.58999 155.149651 143.651149 103.888819 70.701401 96.510343 C 68.419869 96.279024 67.9606 93.159186 70.079165 92.299155 C 82.58018 87.230902 101.700599 75.211222 108.038516 48.078717 C 108.038516 48.078717 128.438964 -22.719655 14.258681 8.410513 C 11.319357 9.211232 9.298572 11.901054 9.348943 14.949717 Z M 9.360796 14.949717 " stroke="#231f20" stroke-width="1" stroke-opacity="1" stroke-miterlimit="10"/></g><path stroke-linecap="butt" transform="matrix(1.31833, 0, 0, 1.317176, 20.421097, -0.000000000000042633)" fill-opacity="1" fill="#ffffff" fill-rule="nonzero" stroke-linejoin="miter" d="M 28.990856 27.500243 L 28.990856 77.210054 C 28.990856 80.389204 31.850178 82.809154 34.979135 82.260514 C 51.10986 79.460963 93.928577 69.828612 88.929949 47.319517 C 88.929949 47.319517 81.759421 6.201122 34.16134 20.501367 C 31.079791 21.420711 28.979004 24.279574 28.979004 27.491346 Z M 28.990856 27.500243 " stroke="#231f20" stroke-width="1" stroke-opacity="1" stroke-miterlimit="10"/><path stroke-linecap="butt" transform="matrix(1.31833, 0, 0, 1.317176, 20.421097, -0.000000000000042633)" fill-opacity="1" fill="#ffffff" fill-rule="nonzero" stroke-linejoin="miter" d="M 36.801398 124.938827 L 36.801398 164.571443 C 36.801398 168.649178 40.199991 171.911365 44.28008 171.739359 C 63.03901 170.950503 110.379308 166.62069 107.499245 142.969828 C 107.499245 142.969828 108.408895 108.011038 48.099423 112.759004 C 41.728913 113.260194 36.801398 118.559767 36.801398 124.950689 Z M 36.801398 124.938827 " stroke="#231f20" stroke-width="1" stroke-opacity="1" stroke-miterlimit="10"/><path stroke-linecap="butt" transform="matrix(1.31833, 0, 0, 1.317176, 20.421097, -0.000000000000042633)" fill-opacity="1" fill="#abb284" fill-rule="nonzero" stroke-linejoin="miter" d="M 130.199002 98.340134 L 130.199002 130.620965 C 130.199002 131.64114 131.02865 132.480412 132.059784 132.480412 L 136.750257 132.480412 C 138.080657 132.480412 139.159199 131.400924 139.159199 130.069358 L 139.159199 118.230582 C 139.159199 117.821326 139.689581 117.670079 139.908845 118.011126 L 148.380142 131.021324 C 148.978674 131.940668 150.000918 132.489309 151.091313 132.489309 L 156.45143 132.489309 C 157.538861 132.489309 158.161097 131.249677 157.509231 130.368887 L 147.340119 116.759632 C 146.51936 115.671248 147.020112 114.129123 148.30014 113.660554 C 150.830566 112.720451 154.110638 110.528854 153.580256 105.499153 C 153.580256 105.499153 154.481017 91.359052 132.38868 95.700727 C 131.120504 95.94984 130.210854 97.070846 130.210854 98.36979 Z M 130.199002 98.340134 " stroke="#231f20" stroke-width="1" stroke-opacity="1" stroke-miterlimit="10"/><path stroke-linecap="butt" transform="matrix(1.31833, 0, 0, 1.317176, 20.421097, -0.000000000000042633)" fill-opacity="1" fill="#abb284" fill-rule="nonzero" stroke-linejoin="miter" d="M 184.739458 114.799354 C 184.739458 115.377651 184.718717 115.955948 184.677235 116.531279 C 184.635752 117.10661 184.576492 117.678976 184.493527 118.248376 C 184.410562 118.814811 184.309819 119.375314 184.188335 119.929886 C 184.066851 120.484458 183.924626 121.027167 183.764622 121.56098 C 183.601655 122.097758 183.423874 122.619708 183.225351 123.129795 C 183.026828 123.639883 182.810527 124.135142 182.576448 124.615574 C 182.345332 125.098971 182.093474 125.561608 181.826802 126.009417 C 181.560129 126.457227 181.278642 126.884277 180.982339 127.293533 C 180.686036 127.702789 180.374918 128.091286 180.048985 128.459024 C 179.723052 128.826761 179.38823 129.170774 179.038592 129.491062 C 178.688955 129.814315 178.327466 130.110877 177.957087 130.383715 C 177.586709 130.656552 177.207441 130.902699 176.819284 131.125121 C 176.431128 131.347543 176.037045 131.540309 175.634073 131.709349 C 175.231101 131.87839 174.825167 132.017774 174.413306 132.130468 C 174.001445 132.243162 173.586621 132.329165 173.168834 132.385512 C 172.748084 132.441859 172.330297 132.468549 171.909547 132.468549 C 171.488797 132.468549 171.07101 132.441859 170.653223 132.385512 C 170.235436 132.329165 169.817649 132.243162 169.405788 132.130468 C 168.993928 132.017774 168.587993 131.87839 168.185021 131.709349 C 167.782049 131.540309 167.387966 131.347543 166.99981 131.125121 C 166.611653 130.902699 166.232386 130.656552 165.862007 130.383715 C 165.491629 130.110877 165.130139 129.814315 164.783465 129.491062 C 164.433828 129.170774 164.096042 128.826761 163.770109 128.459024 C 163.447139 128.091286 163.136021 127.702789 162.836755 127.293533 C 162.540453 126.884277 162.258965 126.457227 161.992292 126.009417 C 161.72562 125.561608 161.476726 125.098971 161.242646 124.615574 C 161.008567 124.135142 160.792266 123.639883 160.593743 123.129795 C 160.398183 122.619708 160.217439 122.097758 160.057435 121.56098 C 159.894469 121.027167 159.755206 120.484458 159.633722 119.929886 C 159.509275 119.375314 159.408532 118.814811 159.325567 118.248376 C 159.245566 117.678976 159.183342 117.10661 159.14186 116.531279 C 159.100377 115.955948 159.079636 115.377651 159.079636 114.799354 C 159.079636 114.221057 159.100377 113.64276 159.14186 113.067429 C 159.183342 112.492098 159.245566 111.919732 159.325567 111.353297 C 159.408532 110.783897 159.509275 110.223394 159.633722 109.671788 C 159.755206 109.117216 159.894469 108.571541 160.057435 108.037728 C 160.217439 107.503916 160.398183 106.981966 160.593743 106.471878 C 160.792266 105.958825 161.008567 105.463566 161.242646 104.983134 C 161.476726 104.502703 161.72562 104.0371 161.992292 103.58929 C 162.258965 103.141481 162.540453 102.714431 162.836755 102.305175 C 163.136021 101.895918 163.447139 101.507422 163.770109 101.139684 C 164.096042 100.774912 164.433828 100.4309 164.783465 100.107646 C 165.130139 99.787359 165.491629 99.487831 165.862007 99.214993 C 166.232386 98.945121 166.611653 98.696009 166.99981 98.473587 C 167.387966 98.254131 167.782049 98.058399 168.185021 97.892324 C 168.587993 97.723284 168.993928 97.583899 169.405788 97.46824 C 169.817649 97.355546 170.235436 97.272509 170.653223 97.216162 C 171.07101 97.159815 171.488797 97.130159 171.909547 97.130159 C 172.330297 97.130159 172.748084 97.159815 173.168834 97.216162 C 173.586621 97.272509 174.001445 97.355546 174.413306 97.46824 C 174.825167 97.583899 175.231101 97.723284 175.634073 97.892324 C 176.037045 98.058399 176.431128 98.254131 176.819284 98.473587 C 177.207441 98.696009 177.586709 98.945121 177.957087 99.214993 C 178.327466 99.487831 178.688955 99.787359 179.038592 100.107646 C 179.38823 100.4309 179.723052 100.774912 180.048985 101.139684 C 180.374918 101.507422 180.686036 101.895918 180.982339 102.305175 C 181.278642 102.714431 181.560129 103.141481 181.826802 103.58929 C 182.093474 104.0371 182.345332 104.502703 182.576448 104.983134 C 182.810527 105.463566 183.026828 105.958825 183.225351 106.471878 C 183.423874 106.981966 183.601655 107.503916 183.764622 108.037728 C 183.924626 108.571541 184.066851 109.117216 184.188335 109.671788 C 184.309819 110.223394 184.410562 110.783897 184.493527 111.353297 C 184.576492 111.919732 184.635752 112.492098 184.677235 113.067429 C 184.718717 113.64276 184.739458 114.221057 184.739458 114.799354 Z M 184.739458 114.799354 " stroke="#231f20" stroke-width="1" stroke-opacity="1" stroke-miterlimit="10"/><path stroke-linecap="butt" transform="matrix(1.31833, 0, 0, 1.317176, 20.421097, -0.000000000000042633)" fill-opacity="1" fill="#ffffff" fill-rule="nonzero" stroke-linejoin="miter" d="M 177.240034 114.799354 C 177.240034 115.232335 177.204478 115.662351 177.136328 116.086435 C 177.068179 116.513485 176.967436 116.925707 176.8341 117.326067 C 176.700763 117.726426 176.534834 118.106026 176.342237 118.467832 C 176.146677 118.826673 175.927413 119.161789 175.678519 119.467248 C 175.432587 119.772708 175.162952 120.045545 174.872575 120.288726 C 174.579235 120.528942 174.274043 120.730604 173.951073 120.89668 C 173.62514 121.062755 173.293281 121.187311 172.94957 121.273314 C 172.605859 121.356351 172.259184 121.400836 171.909547 121.400836 C 171.55991 121.400836 171.213236 121.356351 170.869524 121.273314 C 170.525813 121.187311 170.193954 121.062755 169.870984 120.89668 C 169.548014 120.730604 169.239859 120.528942 168.949482 120.288726 C 168.659105 120.045545 168.38947 119.772708 168.140576 119.467248 C 167.894644 119.161789 167.672417 118.826673 167.476857 118.467832 C 167.28426 118.106026 167.118331 117.726426 166.984995 117.326067 C 166.851658 116.925707 166.750915 116.513485 166.682766 116.086435 C 166.614616 115.662351 166.57906 115.232335 166.57906 114.799354 C 166.57906 114.366373 166.614616 113.936357 166.682766 113.512273 C 166.750915 113.088188 166.851658 112.675966 166.984995 112.275607 C 167.118331 111.875247 167.28426 111.492682 167.476857 111.133841 C 167.672417 110.772035 167.894644 110.439885 168.140576 110.134425 C 168.38947 109.826 168.659105 109.553163 168.949482 109.312947 C 169.239859 109.072732 169.548014 108.868103 169.870984 108.702028 C 170.193954 108.535953 170.525813 108.411397 170.869524 108.325394 C 171.213236 108.242357 171.55991 108.200838 171.909547 108.200838 C 172.259184 108.200838 172.605859 108.242357 172.94957 108.325394 C 173.293281 108.411397 173.62514 108.535953 173.951073 108.702028 C 174.274043 108.868103 174.579235 109.072732 174.872575 109.312947 C 175.162952 109.553163 175.432587 109.826 175.678519 110.134425 C 175.927413 110.439885 176.146677 110.772035 176.342237 111.133841 C 176.534834 111.492682 176.700763 111.875247 176.8341 112.275607 C 176.967436 112.675966 177.068179 113.088188 177.136328 113.512273 C 177.204478 113.936357 177.240034 114.366373 177.240034 114.799354 Z M 177.240034 114.799354 " stroke="#231f20" stroke-width="1" stroke-opacity="1" stroke-miterlimit="10"/><path stroke-linecap="butt" transform="matrix(1.31833, 0, 0, 1.317176, 20.421097, -0.000000000000042633)" fill-opacity="1" fill="#ffffff" fill-rule="nonzero" stroke-linejoin="miter" d="M 147.340119 105.169969 C 147.340119 107.539503 144.788952 109.470125 141.639253 109.470125 C 138.489555 109.470125 138.931046 107.551366 138.931046 105.169969 C 138.931046 102.788572 138.489555 100.869812 141.639253 100.869812 C 144.788952 100.869812 147.340119 102.788572 147.340119 105.169969 Z M 147.340119 105.169969 " stroke="#231f20" stroke-width="1" stroke-opacity="1" stroke-miterlimit="10"/><path stroke-linecap="butt" transform="matrix(1.31833, 0, 0, 1.317176, 20.421097, -0.000000000000042633)" fill-opacity="1" fill="#abb284" fill-rule="nonzero" stroke-linejoin="miter" d="M 188.849178 99.639078 L 188.849178 129.749071 C 188.849178 131.30899 190.111428 132.569381 191.669981 132.569381 L 197.670112 132.569381 C 198.680505 132.569381 199.489411 131.750868 199.489411 130.751452 L 199.489411 122.13038 C 199.489411 121.54022 200.259799 121.308901 200.588695 121.801195 L 206.899944 131.350509 C 207.400696 132.109709 208.251085 132.560484 209.160735 132.560484 L 213.620092 132.560484 C 215.098643 132.560484 215.969773 130.890837 215.119384 129.680862 L 205.519173 116.000432 C 205.000644 115.259026 204.950272 114.28037 205.379911 113.488548 L 212.731183 100.069093 C 213.48083 98.698974 212.491178 97.020431 210.929662 97.020431 L 204.941383 97.020431 C 203.779876 97.020431 202.748742 97.758871 202.369475 98.859118 L 199.021253 108.66051 C 198.959029 108.82955 198.719024 108.790997 198.710135 108.618991 L 198.280496 99.858534 C 198.280496 98.298615 197.009357 97.029327 195.450804 97.029327 L 191.459606 97.029327 C 190.019574 97.029327 188.849178 98.200749 188.849178 99.639078 Z M 188.849178 99.639078 " stroke="#231f20" stroke-width="1" stroke-opacity="1" stroke-miterlimit="10"/><path fill="#abb284" d="M 310.058594 131.703125 L 309.898438 170.691406 C 309.898438 172.65625 311.480469 174.261719 313.445312 174.261719 L 332.996094 174.261719 C 334.960938 174.261719 336.542969 172.667969 336.542969 170.71875 L 336.542969 167.230469 C 336.542969 165.265625 334.949219 163.683594 332.996094 163.683594 L 324.890625 163.683594 C 322.925781 163.683594 321.34375 162.089844 321.34375 160.140625 C 321.34375 158.179688 322.9375 156.597656 324.890625 156.597656 L 332.996094 156.597656 C 334.960938 156.597656 336.542969 155.003906 336.542969 153.054688 L 336.542969 149.65625 C 336.542969 147.695312 334.949219 146.113281 332.996094 146.113281 L 324.890625 146.113281 C 322.925781 146.113281 321.34375 144.519531 321.34375 142.570312 L 321.34375 142.1875 C 321.34375 140.226562 322.9375 138.644531 324.890625 138.644531 L 332.996094 138.644531 C 334.960938 138.644531 336.542969 137.050781 336.542969 135.101562 L 336.542969 131.769531 C 336.542969 129.808594 334.949219 128.226562 332.996094 128.226562 L 313.605469 128.226562 C 311.652344 128.226562 310.058594 129.808594 310.058594 131.757812 Z M 310.058594 131.703125 " fill-opacity="1" fill-rule="nonzero"/><g clip-path="url(#215eb6db62)"><path stroke-linecap="butt" transform="matrix(1.31833, 0, 0, 1.317176, 20.421097, -0.000000000000042633)" fill="none" stroke-linejoin="miter" d="M 219.700225 99.989021 L 219.578741 129.588927 C 219.578741 131.080637 220.778767 132.299509 222.269171 132.299509 L 237.099126 132.299509 C 238.589529 132.299509 239.789555 131.089534 239.789555 129.609687 L 239.789555 126.961383 C 239.789555 125.469674 238.58064 124.268595 237.099126 124.268595 L 230.950843 124.268595 C 229.460439 124.268595 228.260413 123.05862 228.260413 121.578773 C 228.260413 120.090029 229.469329 118.888951 230.950843 118.888951 L 237.099126 118.888951 C 238.589529 118.888951 239.789555 117.678976 239.789555 116.199129 L 239.789555 113.619035 C 239.789555 112.130291 238.58064 110.929213 237.099126 110.929213 L 230.950843 110.929213 C 229.460439 110.929213 228.260413 109.719238 228.260413 108.239391 L 228.260413 107.94876 C 228.260413 106.460016 229.469329 105.258937 230.950843 105.258937 L 237.099126 105.258937 C 238.589529 105.258937 239.789555 104.048962 239.789555 102.569115 L 239.789555 100.039437 C 239.789555 98.550693 238.58064 97.349615 237.099126 97.349615 L 222.390655 97.349615 C 220.909141 97.349615 219.700225 98.550693 219.700225 100.03054 Z M 219.700225 99.989021 " stroke="#231f20" stroke-width="1" stroke-opacity="1" stroke-miterlimit="10"/></g><path stroke-linecap="butt" transform="matrix(1.31833, 0, 0, 1.317176, 20.421097, -0.000000000000042633)" fill-opacity="1" fill="#abb284" fill-rule="nonzero" stroke-linejoin="miter" d="M 131.520513 154.719636 C 130.759015 154.719636 130.130853 155.330554 130.130853 156.089755 C 130.130853 158.631295 129.390096 164.310468 129.330835 169.888809 C 129.259722 176.430978 131.099763 181.810622 137.419901 181.75131 C 137.419901 181.75131 158.081096 184.310645 150.380186 156.448595 C 150.098698 155.431386 149.18016 154.719636 148.119396 154.719636 L 146.051202 154.719636 C 145.011179 154.719636 144.22894 155.668636 144.439315 156.688811 C 145.331186 161.098696 147.091225 171.599975 142.670387 174.049581 C 140.379966 175.280316 133.470185 178.560297 136.270247 156.819298 C 136.409509 155.719051 135.550231 154.728533 134.439095 154.728533 L 131.520513 154.728533 Z M 131.520513 154.719636 " stroke="#231f20" stroke-width="1" stroke-opacity="1" stroke-miterlimit="10"/><path stroke-linecap="butt" transform="matrix(1.31833, 0, 0, 1.317176, 20.421097, -0.000000000000042633)" fill-opacity="1" fill="#abb284" fill-rule="nonzero" stroke-linejoin="miter" d="M 157.411451 156.869714 L 157.319597 159.950999 C 157.281078 161.309255 158.380361 162.439158 159.740391 162.439158 L 162.570083 162.439158 C 163.40862 162.439158 164.090116 163.121252 164.090116 163.960524 L 164.090116 179.470744 C 164.090116 180.760791 165.139028 181.810622 166.430908 181.810622 L 172.540672 181.810622 C 173.42958 181.810622 174.149596 181.089975 174.149596 180.200288 L 174.149596 163.960524 C 174.149596 163.121252 174.831093 162.430261 175.681482 162.430261 L 180.700851 162.430261 C 181.518647 162.430261 182.191254 161.768927 182.191254 160.938552 L 182.209032 157.510289 C 182.209032 155.97113 180.970487 154.710739 179.429712 154.710739 L 159.618907 154.710739 C 158.418881 154.710739 157.441082 155.659739 157.411451 156.860817 Z M 157.411451 156.869714 " stroke="#231f20" stroke-width="1" stroke-opacity="1" stroke-miterlimit="10"/><path fill="#ffd6ec" d="M 110.570312 270.851562 C 110.515625 266.726562 107.257812 263.382812 103.144531 263.171875 C 90.042969 262.511719 62.382812 262.855469 45.707031 275.421875 C 19.378906 295.246094 4.363281 350.15625 52.441406 369.679688 C 62.59375 373.800781 84.226562 374.261719 102.988281 374.316406 C 107.3125 374.316406 110.804688 370.835938 110.804688 366.515625 L 110.804688 352.570312 C 110.804688 348.367188 107.484375 344.914062 103.292969 344.769531 C 93.851562 344.441406 77.847656 343.425781 69.253906 340.214844 C 50.082031 333.0625 44.125 306.691406 81.921875 293.363281 C 86.484375 291.753906 95.195312 291.9375 103.1875 291.714844 C 107.445312 291.582031 110.820312 288.066406 110.753906 283.8125 Z M 110.570312 270.851562 " fill-opacity="1" fill-rule="nonzero"/><g clip-path="url(#1178af9d52)"><path stroke-linecap="butt" transform="matrix(1.31833, 0, 0, 1.317176, 20.421097, -0.000000000000042633)" fill="none" stroke-linejoin="miter" d="M 68.38135 205.630525 C 68.339867 202.498824 65.868702 199.960249 62.748634 199.800105 C 52.810638 199.298915 31.829437 199.55989 19.18027 209.100306 C -0.790538 224.150854 -12.180418 265.838649 24.28853 280.660844 C 31.98944 283.789578 48.398689 284.139522 62.630112 284.181041 C 65.910184 284.181041 68.559131 281.538669 68.559131 278.258687 L 68.559131 267.671405 C 68.559131 264.480392 66.040558 261.85878 62.861229 261.749051 C 55.69959 261.499939 43.560064 260.728876 37.041403 258.291132 C 22.498862 252.861073 17.980244 232.840136 46.650503 222.721423 C 50.111319 221.499585 56.718872 221.63897 62.781227 221.469929 C 66.010927 221.369098 68.570984 218.700035 68.520612 215.470469 Z M 68.38135 205.630525 " stroke="#231f20" stroke-width="1" stroke-opacity="1" stroke-miterlimit="10"/></g><path stroke-linecap="butt" transform="matrix(1.31833, 0, 0, 1.317176, 20.421097, -0.000000000000042633)" fill-opacity="1" fill="#ffd6ec" fill-rule="nonzero" stroke-linejoin="miter" d="M 84.950602 213.59916 C 81.389043 213.59916 78.44083 216.3305 78.150453 219.871457 C 77.548958 227.249933 77.620071 238.759524 77.468957 253.130944 C 77.279323 270.180324 82.079428 284.189938 98.55979 284.029794 C 98.55979 284.029794 152.110594 290.660932 132.468682 218.661482 C 131.659775 215.681029 128.969346 213.59916 125.878908 213.59916 L 124.10998 213.59916 C 119.849146 213.59916 116.619445 217.460404 117.398721 221.650832 C 119.760255 234.319983 122.850693 258.06871 112.231201 263.961408 C 106.340701 267.119799 88.719574 275.479896 95.279718 221.23861 C 95.768617 217.178669 92.60114 213.59916 88.509199 213.59916 Z M 84.950602 213.59916 " stroke="#231f20" stroke-width="1" stroke-opacity="1" stroke-miterlimit="10"/><path stroke-linecap="butt" transform="matrix(1.31833, 0, 0, 1.317176, 20.421097, -0.000000000000042633)" fill-opacity="1" fill="#ffd6ec" fill-rule="nonzero" stroke-linejoin="miter" d="M 141.159243 219.809179 L 140.948868 227.140205 C 140.851088 230.740474 143.74004 233.709065 147.340119 233.709065 L 152.199485 233.709065 C 155.731414 233.709065 158.590736 236.570893 158.590736 240.099987 L 158.590736 277.799015 C 158.590736 281.331075 161.450058 284.189938 164.979025 284.189938 L 178.41932 284.189938 C 181.951249 284.189938 184.810571 281.331075 184.810571 277.799015 L 184.810571 240.099987 C 184.810571 236.570893 187.669893 233.709065 191.198859 233.709065 L 199.388669 233.709065 C 202.908746 233.709065 205.759179 230.870961 205.77992 227.350764 L 205.821402 220.019738 C 205.83918 216.478782 202.970969 213.590263 199.430151 213.590263 L 147.538642 213.590263 C 144.080788 213.590263 141.251097 216.339397 141.150354 219.800282 Z M 141.159243 219.809179 " stroke="#231f20" stroke-width="1" stroke-opacity="1" stroke-miterlimit="10"/><g clip-path="url(#39b975098a)"><path fill="#ffd6ec" d="M 300.765625 288.476562 L 300.433594 367.136719 C 300.421875 371.101562 303.625 374.328125 307.605469 374.328125 L 347.050781 374.328125 C 351.003906 374.328125 354.222656 371.128906 354.222656 367.164062 L 354.222656 360.117188 C 354.222656 356.164062 351.019531 352.949219 347.050781 352.949219 L 330.703125 352.949219 C 326.75 352.949219 323.53125 349.75 323.53125 345.785156 C 323.53125 341.832031 326.734375 338.621094 330.703125 338.621094 L 347.050781 338.621094 C 351.003906 338.621094 354.222656 335.417969 354.222656 331.453125 L 354.222656 324.605469 C 354.222656 320.652344 351.019531 317.4375 347.050781 317.4375 L 330.703125 317.4375 C 326.75 317.4375 323.53125 314.238281 323.53125 310.273438 L 323.53125 309.511719 C 323.53125 305.558594 326.734375 302.34375 330.703125 302.34375 L 347.050781 302.34375 C 351.003906 302.34375 354.222656 299.144531 354.222656 295.179688 L 354.222656 288.460938 C 354.222656 284.511719 351.019531 281.296875 347.050781 281.296875 L 307.9375 281.296875 C 303.992188 281.296875 300.789062 284.484375 300.765625 288.421875 Z M 300.765625 288.476562 " fill-opacity="1" fill-rule="nonzero"/></g><g clip-path="url(#af57d25e28)"><path stroke-linecap="butt" transform="matrix(1.31833, 0, 0, 1.317176, 20.421097, -0.000000000000042633)" fill="none" stroke-linejoin="miter" d="M 212.651182 219.011426 L 212.399324 278.730222 C 212.390435 281.740331 214.820118 284.189938 217.839444 284.189938 L 247.7601 284.189938 C 250.758685 284.189938 253.20022 281.761091 253.20022 278.750981 L 253.20022 273.400993 C 253.20022 270.39978 250.770537 267.959071 247.7601 267.959071 L 235.359828 267.959071 C 232.361244 267.959071 229.919709 265.530224 229.919709 262.520114 C 229.919709 259.518901 232.349392 257.081157 235.359828 257.081157 L 247.7601 257.081157 C 250.758685 257.081157 253.20022 254.649345 253.20022 251.639235 L 253.20022 246.440494 C 253.20022 243.439281 250.770537 240.998571 247.7601 240.998571 L 235.359828 240.998571 C 232.361244 240.998571 229.919709 238.569724 229.919709 235.559615 L 229.919709 234.981318 C 229.919709 231.980105 232.349392 229.539395 235.359828 229.539395 L 247.7601 229.539395 C 250.758685 229.539395 253.20022 227.110548 253.20022 224.100439 L 253.20022 218.999563 C 253.20022 216.001316 250.770537 213.560607 247.7601 213.560607 L 218.091301 213.560607 C 215.098643 213.560607 212.66896 215.980557 212.651182 218.969907 Z M 212.651182 219.011426 " stroke="#231f20" stroke-width="1" stroke-opacity="1" stroke-miterlimit="10"/></g></svg>