<?xml version="1.0" encoding="UTF-8"?>
<svg id="Layer_1" data-name="Layer 1" xmlns="http://www.w3.org/2000/svg" viewBox="0 0 70.05 78.52">
  <defs>
    <style>
      .cls-1 {
        fill: #80b272;
      }

      .cls-1, .cls-2, .cls-3 {
        stroke: #231f20;
        stroke-miterlimit: 10;
      }

      .cls-2 {
        fill: #abb284;
      }

      .cls-3 {
        fill: #ffd6ec;
      }
    </style>
  </defs>
  <path class="cls-2" d="M2.92,4.45c.1,7.12.58,39.24.69,46.78.01.91.72,1.66,1.63,1.71,5.77.35,25.31.71,29.17-10.18,0,0,5.21-14.01-14.73-16.02-.62-.06-.75-.91-.17-1.15,3.42-1.39,8.64-4.67,10.37-12.08,0,0,5.57-19.35-25.63-10.84-.8.22-1.35.95-1.34,1.79Z"/>
  <path class="cls-1" d="M8.28,7.88v13.58c0,.87.78,1.53,1.64,1.38,4.41-.77,16.11-3.4,14.74-9.55,0,0-1.96-11.24-14.97-7.33-.84.25-1.41,1.03-1.41,1.91Z"/>
  <path class="cls-1" d="M10.42,34.51v10.83c0,1.12.93,2.01,2.04,1.96,5.13-.22,18.06-1.4,17.28-7.86,0,0,.25-9.55-16.23-8.26-1.74.14-3.09,1.59-3.09,3.33Z"/>
  <path class="cls-2" d="M35.94,27.24v8.82c0,.28.23.51.51.51h1.28c.36,0,.66-.29.66-.66v-3.24c0-.11.14-.15.21-.06l2.31,3.55c.16.25.44.4.74.4h1.46c.3,0,.47-.34.29-.58l-2.78-3.72c-.22-.3-.09-.72.26-.85.69-.26,1.59-.85,1.44-2.23,0,0,.25-3.86-5.79-2.68-.35.07-.6.38-.6.73Z"/>
  <ellipse class="cls-2" cx="47.34" cy="31.74" rx="3.51" ry="4.83"/>
  <ellipse class="cls-1" cx="47.34" cy="31.74" rx="1.46" ry="1.8"/>
  <path class="cls-1" d="M40.63,29.1c0,.65-.7,1.17-1.56,1.17s-.74-.53-.74-1.17-.12-1.17.74-1.17,1.56.53,1.56,1.17Z"/>
  <path class="cls-2" d="M51.97,27.59v8.23c0,.43.35.77.77.77h1.64c.27,0,.5-.22.5-.5v-2.35c0-.16.21-.23.3-.09l1.73,2.61c.14.21.37.33.62.33h1.22c.4,0,.64-.46.41-.79l-2.62-3.74c-.14-.2-.16-.47-.04-.69l2.01-3.67c.21-.37-.07-.83-.49-.83h-1.64c-.32,0-.6.2-.7.5l-.91,2.68s-.08.04-.09-.01l-.12-2.4c0-.43-.35-.77-.77-.77h-1.09c-.39,0-.71.32-.71.71Z"/>
  <path class="cls-2" d="M60.4,27.69l-.03,8.09c0,.41.33.74.74.74h4.05c.41,0,.74-.33.74-.74v-.72c0-.41-.33-.74-.74-.74h-1.68c-.41,0-.74-.33-.74-.74h0c0-.41.33-.74.74-.74h1.68c.41,0,.74-.33.74-.74v-.7c0-.41-.33-.74-.74-.74h-1.68c-.41,0-.74-.33-.74-.74v-.08c0-.41.33-.74.74-.74h1.68c.41,0,.74-.33.74-.74v-.69c0-.41-.33-.74-.74-.74h-4.02c-.41,0-.73.33-.74.73Z"/>
  <path class="cls-2" d="M36.3,42.64c-.21,0-.38.17-.38.37,0,.69-.2,2.25-.22,3.77-.02,1.79.48,3.26,2.21,3.24,0,0,5.64.7,3.54-6.91-.08-.28-.33-.47-.62-.47h-.57c-.28,0-.5.26-.44.54.24,1.21.72,4.07-.48,4.74-.63.34-2.52,1.23-1.75-4.71.04-.3-.2-.57-.5-.57h-.8Z"/>
  <path class="cls-2" d="M43.38,43.23l-.02.84c-.01.37.29.68.66.68h.77c.23,0,.42.19.42.42v4.24c0,.35.29.64.64.64h1.67c.24,0,.44-.2.44-.44v-4.44c0-.23.19-.42.42-.42h1.37c.22,0,.41-.18.41-.41v-.94c0-.42-.33-.76-.76-.76h-5.41c-.33,0-.59.26-.6.59Z"/>
  <path class="cls-3" d="M19.05,56.56c-.01-.85-.68-1.55-1.54-1.59-2.72-.14-8.45-.06-11.91,2.54-5.46,4.11-8.57,15.5,1.4,19.56,2.1.86,6.59.95,10.48.96.9,0,1.62-.72,1.62-1.62v-2.89c0-.87-.69-1.59-1.56-1.62-1.96-.07-5.27-.28-7.06-.94-3.97-1.48-5.21-6.95,2.63-9.72.94-.33,2.75-.29,4.41-.34.88-.03,1.58-.76,1.57-1.64l-.04-2.69Z"/>
  <path class="cls-3" d="M23.58,58.73c-.97,0-1.78.74-1.86,1.71-.16,2.02-.14,5.16-.19,9.09-.05,4.66,1.26,8.49,5.76,8.44,0,0,14.63,1.81,9.27-17.86-.22-.81-.96-1.38-1.8-1.38h-.48c-1.16,0-2.05,1.06-1.83,2.2.64,3.46,1.49,9.95-1.41,11.56-1.61.86-6.43,3.15-4.63-11.67.13-1.11-.73-2.09-1.85-2.09h-.97Z"/>
  <path class="cls-3" d="M38.94,60.43l-.06,2c-.03.98.76,1.8,1.75,1.8h1.33c.96,0,1.75.78,1.75,1.75v10.3c0,.96.78,1.75,1.75,1.75h3.67c.96,0,1.75-.78,1.75-1.75v-10.3c0-.96.78-1.75,1.75-1.75h2.24c.96,0,1.74-.78,1.75-1.74v-2c.02-.97-.77-1.76-1.74-1.76h-14.18c-.95,0-1.72.75-1.75,1.7Z"/>
  <path class="cls-3" d="M58.47,60.21l-.07,16.32c0,.82.66,1.49,1.49,1.49h8.18c.82,0,1.49-.67,1.49-1.49v-1.46c0-.82-.67-1.49-1.49-1.49h-3.39c-.82,0-1.49-.67-1.49-1.49h0c0-.82.67-1.49,1.49-1.49h3.39c.82,0,1.49-.67,1.49-1.49v-1.42c0-.82-.67-1.49-1.49-1.49h-3.39c-.82,0-1.49-.67-1.49-1.49v-.16c0-.82.67-1.49,1.49-1.49h3.39c.82,0,1.49-.67,1.49-1.49v-1.39c0-.82-.67-1.49-1.49-1.49h-8.11c-.82,0-1.48.66-1.49,1.48Z"/>
</svg>