<?xml version="1.0" encoding="UTF-8"?>
<svg id="Layer_1" data-name="Layer 1" xmlns="http://www.w3.org/2000/svg" viewBox="0 0 253.69 284.7">
  <path d="M9.36,14.95c.38,26.07,2.11,143.58,2.51,171.18.05,3.33,2.65,6.07,5.97,6.27,21.13,1.29,92.62,2.6,106.75-37.25,0,0,19.06-51.26-53.89-58.64-2.28-.23-2.74-3.35-.62-4.21,12.5-5.07,31.62-17.09,37.96-44.22,0,0,20.4-70.8-93.78-39.67-2.94.8-4.96,3.49-4.91,6.54Z" style="fill: #abb284; stroke: #231f20; stroke-miterlimit: 10;"/>
  <path d="M28.99,27.5v49.71c0,3.18,2.86,5.6,5.99,5.05,16.13-2.8,58.95-12.43,53.95-34.94,0,0-7.17-41.12-54.77-26.82-3.08.92-5.18,3.78-5.18,6.99Z" style="fill: #fff; stroke: #231f20; stroke-miterlimit: 10;"/>
  <path d="M36.8,124.94v39.63c0,4.08,3.4,7.34,7.48,7.17,18.76-.79,66.1-5.12,63.22-28.77,0,0,.91-34.96-59.4-30.21-6.37.5-11.3,5.8-11.3,12.19Z" style="fill: #fff; stroke: #231f20; stroke-miterlimit: 10;"/>
  <path d="M130.2,98.34v32.28c0,1.02.83,1.86,1.86,1.86h4.69c1.33,0,2.41-1.08,2.41-2.41v-11.84c0-.41.53-.56.75-.22l8.47,13.01c.6.92,1.62,1.47,2.71,1.47h5.36c1.09,0,1.71-1.24,1.06-2.12l-10.17-13.61c-.82-1.09-.32-2.63.96-3.1,2.53-.94,5.81-3.13,5.28-8.16,0,0,.9-14.14-21.19-9.8-1.27.25-2.18,1.37-2.18,2.67Z" style="fill: #abb284; stroke: #231f20; stroke-miterlimit: 10;"/>
  <ellipse cx="171.91" cy="114.8" rx="12.83" ry="17.67" style="fill: #abb284; stroke: #231f20; stroke-miterlimit: 10;"/>
  <ellipse cx="171.91" cy="114.8" rx="5.33" ry="6.6" style="fill: #fff; stroke: #231f20; stroke-miterlimit: 10;"/>
  <path d="M147.34,105.17c0,2.37-2.55,4.3-5.7,4.3s-2.71-1.92-2.71-4.3-.44-4.3,2.71-4.3,5.7,1.92,5.7,4.3Z" style="fill: #fff; stroke: #231f20; stroke-miterlimit: 10;"/>
  <path d="M188.85,99.64v30.11c0,1.56,1.26,2.82,2.82,2.82h6c1.01,0,1.82-.82,1.82-1.82v-8.62c0-.59.77-.82,1.1-.33l6.31,9.55c.5.76,1.35,1.21,2.26,1.21h4.46c1.48,0,2.35-1.67,1.5-2.88l-9.6-13.68c-.52-.74-.57-1.72-.14-2.51l7.35-13.42c.75-1.37-.24-3.05-1.8-3.05h-5.99c-1.16,0-2.19.74-2.57,1.84l-3.35,9.8c-.06.17-.3.13-.31-.04l-.43-8.76c0-1.56-1.27-2.83-2.83-2.83h-3.99c-1.44,0-2.61,1.17-2.61,2.61Z" style="fill: #abb284; stroke: #231f20; stroke-miterlimit: 10;"/>
  <path d="M219.7,99.99l-.12,29.6c0,1.49,1.2,2.71,2.69,2.71h14.83c1.49,0,2.69-1.21,2.69-2.69v-2.65c0-1.49-1.21-2.69-2.69-2.69h-6.15c-1.49,0-2.69-1.21-2.69-2.69h0c0-1.49,1.21-2.69,2.69-2.69h6.15c1.49,0,2.69-1.21,2.69-2.69v-2.58c0-1.49-1.21-2.69-2.69-2.69h-6.15c-1.49,0-2.69-1.21-2.69-2.69v-.29c0-1.49,1.21-2.69,2.69-2.69h6.15c1.49,0,2.69-1.21,2.69-2.69v-2.53c0-1.49-1.21-2.69-2.69-2.69h-14.71c-1.48,0-2.69,1.2-2.69,2.68Z" style="fill: #abb284; stroke: #231f20; stroke-miterlimit: 10;"/>
  <path d="M131.52,154.72c-.76,0-1.39.61-1.39,1.37,0,2.54-.74,8.22-.8,13.8-.07,6.54,1.77,11.92,8.09,11.86,0,0,20.66,2.56,12.96-25.3-.28-1.02-1.2-1.73-2.26-1.73h-2.07c-1.04,0-1.82.95-1.61,1.97.89,4.41,2.65,14.91-1.77,17.36-2.29,1.23-9.2,4.51-6.4-17.23.14-1.1-.72-2.09-1.83-2.09h-2.92Z" style="fill: #abb284; stroke: #231f20; stroke-miterlimit: 10;"/>
  <path d="M157.41,156.87l-.09,3.08c-.04,1.36,1.06,2.49,2.42,2.49h2.83c.84,0,1.52.68,1.52,1.52v15.51c0,1.29,1.05,2.34,2.34,2.34h6.11c.89,0,1.61-.72,1.61-1.61v-16.24c0-.84.68-1.53,1.53-1.53h5.02c.82,0,1.49-.66,1.49-1.49l.02-3.43c0-1.54-1.24-2.8-2.78-2.8h-19.81c-1.2,0-2.18.95-2.21,2.15Z" style="fill: #abb284; stroke: #231f20; stroke-miterlimit: 10;"/>
  <path d="M68.38,205.63c-.04-3.13-2.51-5.67-5.63-5.83-9.94-.5-30.92-.24-43.57,9.3-19.97,15.05-31.36,56.74,5.11,71.56,7.7,3.13,24.11,3.48,38.34,3.52,3.28,0,5.93-2.64,5.93-5.92v-10.59c0-3.19-2.52-5.81-5.7-5.92-7.16-.25-19.3-1.02-25.82-3.46-14.54-5.43-19.06-25.45,9.61-35.57,3.46-1.22,10.07-1.08,16.13-1.25,3.23-.1,5.79-2.77,5.74-6l-.14-9.84Z" style="fill: #ffd6ec; stroke: #231f20; stroke-miterlimit: 10;"/>
  <path d="M84.95,213.6c-3.56,0-6.51,2.73-6.8,6.27-.6,7.38-.53,18.89-.68,33.26-.19,17.05,4.61,31.06,21.09,30.9,0,0,53.55,6.63,33.91-65.37-.81-2.98-3.5-5.06-6.59-5.06h-1.77c-4.26,0-7.49,3.86-6.71,8.05,2.36,12.67,5.45,36.42-5.17,42.31-5.89,3.16-23.51,11.52-16.95-42.72.49-4.06-2.68-7.64-6.77-7.64h-3.55Z" style="fill: #ffd6ec; stroke: #231f20; stroke-miterlimit: 10;"/>
  <path d="M141.16,219.81l-.21,7.33c-.1,3.6,2.79,6.57,6.39,6.57h4.86c3.53,0,6.39,2.86,6.39,6.39v37.7c0,3.53,2.86,6.39,6.39,6.39h13.44c3.53,0,6.39-2.86,6.39-6.39v-37.7c0-3.53,2.86-6.39,6.39-6.39h8.19c3.52,0,6.37-2.84,6.39-6.36l.04-7.33c.02-3.54-2.85-6.43-6.39-6.43h-51.89c-3.46,0-6.29,2.75-6.39,6.21Z" style="fill: #ffd6ec; stroke: #231f20; stroke-miterlimit: 10;"/>
  <path d="M212.65,219.01l-.25,59.72c-.01,3.01,2.42,5.46,5.44,5.46h29.92c3,0,5.44-2.43,5.44-5.44v-5.35c0-3-2.43-5.44-5.44-5.44h-12.4c-3,0-5.44-2.43-5.44-5.44h0c0-3,2.43-5.44,5.44-5.44h12.4c3,0,5.44-2.43,5.44-5.44v-5.2c0-3-2.43-5.44-5.44-5.44h-12.4c-3,0-5.44-2.43-5.44-5.44v-.58c0-3,2.43-5.44,5.44-5.44h12.4c3,0,5.44-2.43,5.44-5.44v-5.1c0-3-2.43-5.44-5.44-5.44h-29.67c-2.99,0-5.42,2.42-5.44,5.41Z" style="fill: #ffd6ec; stroke: #231f20; stroke-miterlimit: 10;"/>
</svg>