<?xml version="1.0" encoding="UTF-8"?>
<svg id="Layer_1" data-name="Layer 1" xmlns="http://www.w3.org/2000/svg" viewBox="0 0 152.03 46.61">
  <defs>
    <style>
      .cls-1 {
        fill: #80b272;
      }

      .cls-1, .cls-2, .cls-3 {
        stroke: #231f20;
        stroke-miterlimit: 10;
      }

      .cls-2 {
        fill: #abb284;
      }

      .cls-3 {
        fill: #ffd6ec;
      }
    </style>
  </defs>
  <path class="cls-2" d="M.5,3.86c.09,6.06.49,33.35.58,39.76.01.77.62,1.41,1.39,1.46,4.91.3,21.51.6,24.79-8.65,0,0,4.43-11.91-12.52-13.62-.53-.05-.64-.78-.14-.98,2.9-1.18,7.34-3.97,8.82-10.27,0,0,4.74-16.44-21.78-9.21-.68.19-1.15.81-1.14,1.52h0Z"/>
  <path class="cls-1" d="M5.06,6.77v11.55c0,.74.66,1.3,1.39,1.17,3.75-.65,13.69-2.89,12.53-8.12,0,0-1.67-9.55-12.72-6.23-.72.21-1.2.88-1.2,1.62h0Z"/>
  <path class="cls-1" d="M6.88,29.4v9.2c0,.95.79,1.7,1.74,1.67,4.36-.18,15.35-1.19,14.68-6.68,0,0,.21-8.12-13.8-7.02-1.48.12-2.62,1.35-2.62,2.83h0Z"/>
  <path class="cls-2" d="M28.57,23.23v7.5c0,.24.19.43.43.43h1.09c.31,0,.56-.25.56-.56v-2.75c0-.1.12-.13.17-.05l1.97,3.02c.14.21.38.34.63.34h1.24c.25,0,.4-.29.25-.49l-2.36-3.16c-.19-.25-.07-.61.22-.72.59-.22,1.35-.73,1.23-1.9,0,0,.21-3.28-4.92-2.28-.29.06-.56.08-.56.38l.05.23Z"/>
  <ellipse class="cls-2" cx="38.26" cy="27.05" rx="2.98" ry="4.1"/>
  <ellipse class="cls-1" cx="38.26" cy="27.05" rx="1.24" ry="1.53"/>
  <path class="cls-1" d="M32.55,24.81c0,.55-.59,1-1.32,1s-.63-.45-.63-1-.1-1,.63-1,1.32.45,1.32,1Z"/>
  <path class="cls-2" d="M42.19,23.53v6.99c0,.36.29.66.66.66h1.39c.23,0,.42-.19.42-.42v-2c0-.14.18-.19.26-.08l1.47,2.22c.12.18.31.28.52.28h1.04c.34,0,.55-.39.35-.67l-2.23-3.18c-.12-.17-.13-.4-.03-.58l1.71-3.12c.17-.32-.06-.71-.42-.71h-1.39c-.27,0-.51.17-.6.43l-.78,2.28s-.07.03-.07,0l-.1-2.03c0-.36-.29-.66-.66-.66h-.93c-.33,0-.61.27-.61.61h0Z"/>
  <path class="cls-2" d="M49.36,23.61l-.03,6.88c0,.35.28.63.62.63h3.44c.35,0,.62-.28.62-.62v-.62c0-.35-.28-.62-.62-.62h-1.43c-.35,0-.62-.28-.62-.62h0c0-.35.28-.62.62-.62h1.43c.35,0,.62-.28.62-.62v-.6c0-.35-.28-.62-.62-.62h-1.43c-.35,0-.62-.28-.62-.62v-.07c0-.35.28-.62.62-.62h1.43c.35,0,.62-.28.62-.62v-.59c0-.35-.28-.62-.62-.62h-3.42c-.34,0-.62.28-.62.62h0Z"/>
  <path class="cls-2" d="M28.88,36.32c-.18,0-.32.14-.32.32,0,.59-.17,1.91-.19,3.21-.02,1.52.41,2.77,1.88,2.75,0,0,4.8.59,3.01-5.88-.07-.24-.28-.4-.52-.4h-.48c-.24,0-.42.22-.37.46.21,1.02.62,3.46-.41,4.03-.53.29-2.14,1.05-1.49-4,.03-.26-.17-.49-.43-.49h-.68Z"/>
  <path class="cls-2" d="M34.89,36.82l-.02.72c0,.32.25.58.56.58h.66c.2,0,.35.16.35.35v3.6c0,.3.24.54.54.54h1.42c.21,0,.37-.17.37-.37v-3.77c0-.2.16-.36.36-.36h1.17c.19,0,.35-.15.35-.35v-.8c0-.36-.28-.65-.64-.65h-4.6c-.28,0-.51.22-.51.5h0Z"/>
  <path class="cls-3" d="M86.13,18.32c-.01-1.11-.89-2.01-1.99-2.06-3.52-.18-10.94-.08-15.42,3.29-7.07,5.33-11.1,20.08,1.81,25.32,2.72,1.11,8.53,1.23,13.57,1.25,1.16,0,2.1-.93,2.1-2.09v-3.75c0-1.13-.89-2.06-2.02-2.09-2.53-.09-6.83-.36-9.14-1.22-5.15-1.92-6.74-9.01,3.4-12.59,1.22-.43,3.56-.38,5.71-.44,1.14-.04,2.05-.98,2.03-2.12l-.05-3.48h0Z"/>
  <path class="cls-3" d="M92,21.14c-1.26,0-2.3.97-2.41,2.22-.21,2.61-.19,6.68-.24,11.77-.07,6.03,1.63,10.99,7.46,10.93,0,0,18.95,2.35,12-23.13-.29-1.05-1.24-1.79-2.33-1.79h-.63c-1.51,0-2.65,1.37-2.37,2.85.84,4.48,1.93,12.89-1.83,14.97-2.08,1.12-8.32,4.08-6-15.12.17-1.44-.95-2.7-2.4-2.7h-1.26Z"/>
  <path class="cls-3" d="M111.89,23.33l-.07,2.59c-.04,1.27.99,2.32,2.26,2.32h1.72c1.25,0,2.26,1.01,2.26,2.26v13.34c0,1.25,1.01,2.26,2.26,2.26h4.76c1.25,0,2.26-1.01,2.26-2.26v-13.34c0-1.25,1.01-2.26,2.26-2.26h2.9c1.25,0,2.25-1,2.26-2.25v-2.59c.02-1.25-.99-2.28-2.25-2.28h-18.36c-1.22,0-2.23.97-2.26,2.2h0Z"/>
  <path class="cls-3" d="M137.18,23.05l-.09,21.13c0,1.07.86,1.93,1.92,1.93h10.59c1.06,0,1.92-.86,1.92-1.92v-1.89c0-1.06-.86-1.92-1.92-1.92h-4.39c-1.06,0-1.92-.86-1.92-1.92h0c0-1.06.86-1.92,1.92-1.92h4.39c1.06,0,1.92-.86,1.92-1.92v-1.84c0-1.06-.86-1.92-1.92-1.92h-4.39c-1.06,0-1.92-.86-1.92-1.92v-.21c0-1.06.86-1.92,1.92-1.92h4.39c1.06,0,1.92-.86,1.92-1.92v-1.8c0-1.06-.86-1.92-1.92-1.92h-10.5c-1.06,0-1.92.86-1.92,1.91h0Z"/>
</svg>